<?xml version="1.0" encoding="UTF-8" standalone="no"?>
<!-- Created with Inkscape (http://www.inkscape.org/) -->

<svg
   width="210mm"
   height="297mm"
   viewBox="0 0 210 297"
   version="1.1"
   id="svg1"
   inkscape:version="1.3.2 (091e20e, 2023-11-25, custom)"
   sodipodi:docname="isa1.svg"
   xmlns:inkscape="http://www.inkscape.org/namespaces/inkscape"
   xmlns:sodipodi="http://sodipodi.sourceforge.net/DTD/sodipodi-0.dtd"
   xmlns:xlink="http://www.w3.org/1999/xlink"
   xmlns="http://www.w3.org/2000/svg"
   xmlns:svg="http://www.w3.org/2000/svg">
  <sodipodi:namedview
     id="namedview1"
     pagecolor="#ffffff"
     bordercolor="#000000"
     borderopacity="0.25"
     inkscape:showpageshadow="2"
     inkscape:pageopacity="0.0"
     inkscape:pagecheckerboard="0"
     inkscape:deskcolor="#d1d1d1"
     inkscape:document-units="mm"
     inkscape:zoom="0.69219276"
     inkscape:cx="376.34025"
     inkscape:cy="597.37695"
     inkscape:window-width="1920"
     inkscape:window-height="991"
     inkscape:window-x="-9"
     inkscape:window-y="-9"
     inkscape:window-maximized="1"
     inkscape:current-layer="layer1" />
  <defs
     id="defs1">
    <pattern
       inkscape:collect="always"
       xlink:href="#pattern9132"
       id="pattern24"
       patternTransform="matrix(1.2355212,0,0,2.4586873,115.82625,833.54821)" />
    <pattern
       inkscape:collect="always"
       xlink:href="#pattern9132"
       id="pattern22"
       patternTransform="matrix(1.0826255,0,0,0.92972973,127.67568,365.30502)"
       x="0"
       y="0"
       preserveAspectRatio="none" />
    <pattern
       patternUnits="userSpaceOnUse"
       width="10"
       height="10"
       style="fill:#000000"
       patternTransform="translate(125,600) scale(2)"
       id="pattern9132"
       inkscape:label="Triángulo 2"
       inkscape:collect="always"
       inkscape:isstock="true">
      <path
         id="path8348-2"
         style="opacity:1;stroke:none;stroke-width:4.8561;stroke-linecap:square;paint-order:stroke markers fill;stop-color:#000000"
         d="m 5,5 v 5 H 0 Z m 5,5 V 5 H 5 Z M 5,5 V 0 h 5 z M 0,0 v 5 h 5 z" />
    </pattern>
    <pattern
       inkscape:collect="always"
       xlink:href="#pattern9132-6"
       id="pattern24-0"
       patternTransform="matrix(-1.2355212,0,0,2.4586873,79.307431,830.27938)" />
    <pattern
       patternUnits="userSpaceOnUse"
       width="10"
       height="10"
       style="fill:#000000"
       patternTransform="translate(125,600) scale(2)"
       id="pattern9132-6"
       inkscape:label="Triángulo 2"
       inkscape:collect="always"
       inkscape:isstock="true">
      <path
         id="path8348-2-2"
         style="opacity:1;stroke:none;stroke-width:4.8561;stroke-linecap:square;paint-order:stroke markers fill;stop-color:#000000"
         d="m 5,5 v 5 H 0 Z m 5,5 V 5 H 5 Z M 5,5 V 0 h 5 z M 0,0 v 5 h 5 z" />
    </pattern>
  </defs>
  <g
     inkscape:label="Capa 1"
     inkscape:groupmode="layer"
     id="layer1">
    <ellipse
       style="fill:#cca626;fill-opacity:1;stroke-width:0.264583"
       id="path1"
       cx="97.853279"
       cy="95.750961"
       rx="31.725868"
       ry="36.12162" />
    <path
       style="fill:#000000;fill-opacity:1;stroke-width:0.264583"
       id="path2"
       d="m 80.324065,87.959807 c 3.542408,1.509985 7.101343,2.982172 10.671,4.426905 1.065861,0.313463 3.215942,1.592969 4.320284,0.808498 0.230285,-0.163586 0.378452,-0.419452 0.567679,-0.629179 0.146434,-0.248177 0.324062,-0.48042 0.439301,-0.74453 0.756494,-1.733764 0.801955,-3.940307 0.909346,-5.80187 -0.01347,-1.14744 0.0226,-2.866866 -0.782269,-3.815593 -0.124074,-0.146251 -0.290468,-0.250524 -0.4357,-0.375788 -2.48103,-1.92627 -3.022912,-1.885646 -5.107403,-2.381459 0,0 3.127004,2.382988 3.127004,2.382988 v 0 c 1.456196,0.331227 3.435874,1.20726 -1.68012,-1.436637 0.162171,0.08269 0.34272,0.136435 0.486514,0.24806 0.916357,0.711361 0.929626,2.595428 0.968959,3.610853 -0.09123,1.791314 -0.118438,3.95082 -0.860581,5.614729 -0.105278,0.23604 -0.267541,0.442285 -0.401315,0.663426 -0.156678,0.149477 -0.280667,0.343403 -0.470034,0.448429 -0.914993,0.507469 -3.196228,-0.688469 -4.07615,-0.947433 -3.599482,-1.435621 -7.190843,-2.896536 -10.724973,-4.487254 z" />
    <path
       style="fill:#000000;fill-opacity:1;stroke-width:0.264583"
       id="path3"
       d="m 105.89133,92.901491 c 1.22026,-0.01714 2.44067,-0.0094 3.66101,-0.0136 2.09255,-0.02363 4.18518,-0.01886 6.27778,-0.0076 1.18573,0.06666 2.31516,-0.03639 3.14176,-0.950682 0.74165,-1.147099 0.39581,-2.579386 0.23838,-3.849426 -0.19509,-1.352844 -0.27076,-2.72529 -0.63538,-4.047196 -0.32596,-0.957564 -0.98953,-1.701983 -1.67057,-2.424388 -0.46774,-0.414867 -0.22718,-0.226129 -0.71896,-0.569666 0,0 -3.6803,-1.424575 -3.6803,-1.424575 v 0 c 0.52234,0.280519 0.26719,0.119869 0.76275,0.486198 0.69265,0.663374 1.33896,1.370476 1.74146,2.251755 0.46598,1.283687 0.49444,2.670088 0.71731,4.007033 0.14319,1.137671 0.48875,2.466395 -0.13283,3.516275 -0.76334,0.786559 -1.88353,0.727202 -2.90941,0.719122 -2.09963,0.0114 -4.19927,0.01561 -6.29886,-0.0076 -1.23282,-0.0042 -2.46572,0.0034 -3.69847,-0.0136 z" />
    <path
       style="fill:#000000;fill-opacity:1;stroke-width:0.264583"
       id="path4"
       d="m 81.128904,101.39954 c 1.902997,2.46131 3.939267,4.80993 6.048369,7.09569 2.492566,2.86159 3.457988,3.43129 7.363455,5.25174 0.331343,0.15445 0.714716,0.15412 1.072076,0.23118 2.500836,0.34124 5.038876,0.38236 7.557576,0.27742 1.5803,-0.0818 3.14551,-0.30889 4.70695,-0.55311 0.46042,-0.072 2.37117,-0.36787 2.85244,-0.49041 0.51876,-0.13209 1.02044,-0.32395 1.53066,-0.48592 2.74104,-1.0852 5.42145,-2.35835 8.00416,-3.78231 0.56705,-0.32593 1.15435,-0.60525 1.71685,-0.93831 0,0 -3.30595,-2.13947 -3.30595,-2.13947 v 0 c -0.5479,0.33183 -1.11413,0.62889 -1.66145,0.96208 -2.52433,1.45529 -5.15783,2.75231 -7.89565,3.75307 -0.509,0.14583 -1.01204,0.31437 -1.527,0.43748 -2.45804,0.58763 -5.01355,0.80196 -7.52453,0.99678 -2.511337,0.0521 -5.046752,0.057 -7.528012,-0.38265 -0.349213,-0.0916 -1.308579,-0.52438 -1.047636,-0.27488 0.681945,0.65205 1.582274,1.02823 2.373339,1.54246 0.245028,0.15928 -0.504262,-0.29855 -0.73523,-0.47761 -0.913291,-0.70804 -1.633966,-1.64228 -2.440461,-2.45848 -2.103122,-2.23471 -4.124161,-4.54406 -5.958795,-7.00659 z" />
    <path
       style="fill:#000000;fill-opacity:1;stroke-width:0.264583"
       id="path5"
       d="m 96.624007,59.793832 c -4.435168,0.920131 -8.775737,2.196103 -13.01001,3.797925 -3.37975,1.460698 -6.859113,2.773071 -10.041702,4.64317 -2.193573,1.14073 -3.687683,3.10996 -5.080812,5.087522 -1.253135,1.784231 -2.409965,3.702314 -3.08219,5.791782 -0.133264,0.414224 -0.225321,0.840592 -0.337982,1.260888 -0.608842,2.500206 -0.596251,5.07946 -0.706524,7.632625 -0.105045,3.607107 -0.339941,7.206025 -0.780475,10.787629 -0.384034,2.869157 -0.835094,5.734057 -1.640545,8.519687 -0.422487,1.46116 -0.927758,2.82235 -1.43446,4.25624 -1.612659,3.82679 -3.154721,7.68586 -4.879746,11.46418 -0.299294,0.66812 -0.589229,1.3405 -0.897883,2.00434 -1.159604,2.49405 -0.686964,1.31573 -1.773137,3.73863 -0.682648,1.52277 -1.270244,3.07472 -1.847693,4.63918 -0.72557,1.9473 -1.246046,3.9615 -1.797001,5.96286 -0.174782,0.8367 -0.441612,1.64925 -0.669233,2.47211 0,0 3.459964,1.87781 3.459964,1.87781 v 0 c 0.211989,-0.82987 0.467132,-1.64877 0.634841,-2.48953 0.52635,-2.0028 1.025329,-4.01763 1.713938,-5.9722 1.249807,-3.57192 2.781894,-6.98999 4.445668,-10.38851 1.701109,-3.80111 3.302623,-7.64775 4.863348,-11.5084 0.770636,-2.14052 1.512469,-4.27054 2.040995,-6.48707 0.388333,-1.6286 0.528073,-2.56642 0.7769,-4.20932 0.108011,-0.71313 0.205986,-1.42776 0.30898,-2.14163 0.49361,-3.572207 0.741641,-7.169212 0.877533,-10.772458 0.127887,-2.524242 0.116224,-5.074984 0.681485,-7.55301 0.667586,-2.509796 1.780548,-4.853631 3.341275,-6.94014 1.385726,-1.934835 2.874295,-3.799983 5.01786,-4.938456 3.119083,-1.88186 6.520013,-3.25664 9.862973,-4.680932 4.267655,-1.591566 8.645181,-2.893454 13.151056,-3.616129 z" />
    <path
       style="fill:#000000;fill-opacity:1;stroke-width:0.264583"
       id="path6"
       d="m 94.358644,58.466947 c -1.984756,-0.04973 -3.95012,0.10255 -5.919776,0.327448 -2.94838,0.376087 -5.781533,1.333574 -8.609315,2.212827 -2.777955,0.869722 -5.410906,2.105845 -7.952959,3.510584 -1.622541,0.874594 -3.055652,2.012434 -4.336997,3.327794 -1.510879,1.822577 -3.000493,3.747868 -4.046191,5.887141 -0.219137,0.448305 -0.390791,0.9183 -0.586185,1.37745 -1.094274,2.905069 -1.730672,5.926455 -2.079491,9.002598 -0.188657,1.849332 -0.157655,3.714652 -0.384855,5.561127 -0.1858,1.510016 -0.322355,2.000202 -0.639742,3.531396 -0.982241,4.078623 -2.584693,7.951698 -4.252773,11.785868 -1.583927,3.71103 -2.977308,7.49761 -4.414091,11.26777 -1.488912,3.59008 -2.824043,7.24293 -4.368461,10.80953 -0.715428,1.69819 -1.488637,3.38568 -2.007647,5.15762 -0.178076,0.61332 -0.227226,1.24675 -0.264016,1.8805 0,0 3.504917,1.80831 3.504917,1.80831 v 0 c 0.02635,-0.60821 0.06218,-1.21737 0.210924,-1.81077 0.464009,-1.77632 1.201217,-3.46924 1.875908,-5.17225 1.50063,-3.59476 2.81652,-7.26255 4.284854,-10.87067 1.467516,-3.74961 2.907888,-7.50929 4.481846,-11.21538 1.615739,-3.882 3.186704,-7.786341 4.266423,-11.860078 0.289731,-1.289153 0.535043,-2.245855 0.716024,-3.54294 0.256851,-1.840849 0.19394,-3.708739 0.380944,-5.555345 0.327397,-3.04324 0.905526,-6.042057 2.019034,-8.907005 1.131607,-2.615861 2.643735,-5.029864 4.607912,-7.108719 1.290325,-1.24913 2.682957,-2.378744 4.263056,-3.24826 2.503956,-1.404271 5.103201,-2.632493 7.853318,-3.481099 2.830935,-0.866506 5.670031,-1.784467 8.625318,-2.114233 1.986296,-0.218122 3.972618,-0.331721 5.971821,-0.236424 z" />
    <path
       style="fill:#000000;fill-opacity:1;stroke-width:0.264583"
       id="path7"
       d="m 104.58853,62.68154 c 4.92616,-0.0076 9.91126,0.357179 14.67881,1.672288 0.87937,0.24257 1.73654,0.559406 2.60481,0.839108 2.4662,1.044223 2.07193,0.807344 4.30026,2.00153 0.48399,0.259374 -1.47155,-1.296858 -1.46784,-0.74776 0.004,0.628883 0.9964,0.768826 1.47078,1.181714 1.16151,1.010949 1.21611,1.161745 2.17894,2.304563 0.286,0.414091 1.32251,1.869527 1.55027,2.36823 1.42419,3.118453 1.69705,6.707677 2.07897,10.063091 0.33046,4.787691 -0.1292,9.565732 -0.5811,14.326544 -0.21835,2.43132 -0.47081,4.871172 -0.43274,7.314952 0.21762,2.78258 0.198,5.56989 0.1636,8.35866 0.0663,4.99758 -0.16164,9.99422 -0.12441,14.99114 0.0838,1.7075 0.0396,3.43262 0.24353,5.1326 0.0928,0.89555 0.57381,1.60961 1.16733,2.25226 1.554,1.49383 3.48186,2.74408 5.51615,3.42689 0.51077,0.14722 1.04072,0.18301 1.56826,0.21318 0,0 -3.17981,-2.34811 -3.17981,-2.34811 v 0 c -0.50833,-0.0501 -1.01736,-0.11189 -1.49571,-0.30405 -1.41647,-0.63455 -0.54552,-0.26021 2.63821,1.59505 0.64941,0.37843 -2.03953,-1.24654 -1.40177,-1.06633 -0.58481,-0.57421 -1.15578,-1.18638 -1.27661,-2.03193 -0.29929,-1.69575 -0.23791,-3.4476 -0.40273,-5.15749 -0.1627,-4.99748 -0.0328,-10.00284 0.0758,-15.00009 0.0619,-2.76982 0.23585,-5.54352 -0.0295,-8.30781 -0.0769,-2.44397 0.14737,-4.88641 0.32477,-7.322034 0.40057,-4.808376 0.74886,-9.627651 0.48707,-14.45659 -0.28557,-2.73136 -0.56696,-5.448244 -1.23623,-8.119512 -0.16992,-0.678225 -0.33039,-1.36447 -0.59715,-2.01077 -0.13719,-0.332377 -1.38506,-2.179153 -1.54863,-2.425644 -0.32575,-0.402609 -0.62713,-0.826217 -0.97725,-1.207826 -3.18542,-3.471928 -7.61523,-5.523748 -11.91157,-7.268691 -0.86487,-0.26492 -1.71964,-0.565388 -2.59461,-0.794756 -4.869,-1.276368 -9.92459,-1.549725 -14.93086,-1.754407 z" />
    <path
       style="fill:#000000;fill-opacity:1;stroke-width:0.264583"
       id="path8"
       d="m 107.70766,61.2777 c 1.68267,0.334354 3.29333,0.906756 4.86018,1.597996 0.65908,0.290767 1.26353,0.714724 1.95139,0.928698 0.47305,0.147156 -1.62499,-1.096774 -1.29729,-0.725225 0.47064,0.533625 1.16242,0.820864 1.74363,1.231296 2.65013,1.923915 4.88985,4.315413 7.11318,6.69906 1.40437,1.423104 2.51408,3.057964 3.31588,4.883023 0.772,1.912805 0.82635,4.001579 0.9104,6.034971 0.0812,3.740327 0.83016,7.434114 1.4347,11.116593 0.92341,5.075179 0.91293,10.063208 0.66951,15.187698 -0.2073,3.92116 -0.3586,7.84445 -0.47436,11.76926 -0.0754,2.043 -0.17578,3.7983 0.89251,5.60304 0.59416,0.74221 1.3971,1.28622 2.21464,1.75777 3.97318,2.29166 2.60476,1.70508 4.70183,2.54681 0.78411,0.30029 1.61324,0.43198 2.43548,0.57634 0,0 -3.11117,-2.34917 -3.11117,-2.34917 v 0 c -0.81083,-0.15999 -1.62455,-0.3188 -2.38886,-0.6471 -1.5858,-0.70802 -1.28361,-0.60561 2.01047,1.29433 0.2016,0.11628 -0.38821,-0.25692 -0.58569,-0.38007 -0.50699,-0.31618 -0.73506,-0.40829 -1.19806,-0.78024 -0.17277,-0.13879 -0.32721,-0.29899 -0.49081,-0.44849 -0.13286,-0.17745 -0.28846,-0.33996 -0.39857,-0.53236 -0.83724,-1.46294 -0.68247,-3.2984 -0.69368,-4.90526 0.0551,-3.93514 0.18817,-7.86839 0.39944,-11.79839 0.13547,-3.36667 0.23691,-6.75607 -0.0277,-10.12029 -0.0666,-0.846362 -0.19159,-1.687129 -0.29399,-2.529906 -0.10593,-0.871709 -0.22066,-1.742324 -0.33099,-2.613485 -0.57219,-3.64829 -1.28783,-7.304141 -1.32161,-11.008482 -0.0648,-2.061691 -0.096,-4.191865 -0.8191,-6.147766 -0.77034,-1.882846 -1.87213,-3.575229 -3.30758,-5.027937 -2.26165,-2.401692 -4.51173,-4.840145 -7.17998,-6.80606 -0.57915,-0.422492 -1.12668,-0.892154 -1.73746,-1.267476 -3.80722,-2.339538 -7.71883,-4.57223 -12.13528,-5.488524 z" />
    <path
       style="fill:#000000;fill-opacity:1;stroke-width:0.264583"
       id="path9"
       d="m 105.2007,58.942133 c 4.01505,0.373364 7.6019,1.849512 11.25618,3.452651 2.57958,1.290876 5.13102,2.893764 8.44101,5.998427 2.92946,2.796402 4.58537,6.498013 6.31556,10.088152 1.99852,4.295556 3.74927,8.708888 4.95165,13.294543 0.85529,3.640952 1.08226,7.38098 1.22232,11.105614 -0.0365,2.95138 0.49971,5.8557 1.257,8.69541 0.59015,1.72124 0.87906,3.56622 1.69109,5.20385 0.48257,0.74588 0.91446,1.49933 1.12379,2.36654 0.16555,1.0865 0.14346,2.19252 0.14169,3.28882 -0.0145,1.16546 0.38097,2.23109 0.78704,3.30151 0.70427,1.59104 1.07628,3.27929 1.44978,4.96962 0,0 3.46624,1.67197 3.46624,1.67197 v 0 c -0.37425,-1.68482 -0.67544,-3.39089 -1.3575,-4.98771 -0.39029,-1.03413 -0.82491,-2.04383 -0.84279,-3.17081 -0.003,-1.1176 0.0106,-2.23811 -0.0849,-3.35256 -0.17045,-0.91736 -0.54409,-1.73222 -1.1035,-2.4839 -0.94808,-1.56778 -1.16239,-3.46527 -1.8123,-5.16071 -0.80041,-2.80976 -1.32946,-5.69516 -1.31616,-8.62747 -0.1675,-3.75056 -0.43184,-7.511384 -1.21158,-11.192092 -1.23227,-4.631328 -3.05532,-9.068565 -5.05518,-13.418791 -1.68676,-3.591044 -3.19483,-7.351445 -6.11118,-10.149726 -1.15348,-1.093177 -1.45358,-1.426488 -2.76246,-2.444311 -3.70639,-2.882188 -7.92689,-5.047583 -12.04845,-7.258653 -1.98143,-0.858512 -3.2137,-1.446813 -5.25514,-2.121657 -2.04879,-0.677275 -4.17634,-1.130432 -6.31134,-1.425247 z" />
    <path
       style="fill:#000000;fill-opacity:1;stroke-width:0.264583"
       id="path10"
       d="m 103.75038,59.51825 c 2.45526,-0.562919 4.95773,-1.074856 7.48323,-1.175649 2.37339,-0.09472 3.4882,0.07773 5.85108,0.282778 2.71317,0.353862 5.07691,1.213258 7.52045,2.387243 0.43405,0.208534 -1.47959,-1.042591 -1.3193,-0.58851 0.22514,0.637818 1.11218,0.788625 1.56675,1.289502 0.72806,0.802251 1.30523,1.729484 1.95785,2.594224 0.71181,1.197499 1.46227,2.372847 2.13542,3.592497 1.82881,3.313575 4.01947,7.78706 5.66112,11.152751 1.74331,3.574118 3.8845,8.005153 5.4814,11.662095 0.7818,1.790348 1.49533,3.609742 2.24299,5.414613 2.0918,5.882446 3.81436,11.940966 4.70383,18.132806 0.31879,2.21924 0.31419,3.08962 0.412,5.21591 0.12658,2.1443 -0.23804,4.2513 -0.63807,6.3449 -0.16121,0.84712 -0.3692,1.67333 0.11551,2.43947 1.60013,1.3817 3.51188,2.54071 5.6234,2.40922 0,0 -3.19652,-2.31324 -3.19652,-2.31324 v 0 c -0.44082,-0.0126 -0.45566,0.004 -0.9124,-0.0849 -0.15974,-0.031 -0.6099,-0.20455 -0.4746,-0.11416 2.35085,1.57066 4.12018,2.21211 2.6063,1.64246 -0.77209,-0.61827 -0.3772,-1.26187 -0.2932,-2.13391 0.35641,-2.15715 0.6797,-4.32673 0.49033,-6.52246 -0.15401,-2.14498 -0.18127,-3.10238 -0.54226,-5.33006 -1.01252,-6.24837 -2.82465,-12.35228 -4.91598,-18.313913 -0.76244,-1.815873 -1.49279,-3.645548 -2.28731,-5.447615 -1.65888,-3.762506 -3.7176,-7.982343 -5.49997,-11.678977 -0.58003,-1.202968 -4.63357,-9.610273 -5.38584,-11.054874 -0.63243,-1.214472 -1.34471,-2.385668 -2.01707,-3.578502 -0.59681,-0.874813 -1.10487,-1.817288 -1.79043,-2.624437 -0.44554,-0.524555 -1.0007,-0.955371 -1.57379,-1.336455 -4.49621,-2.989818 -7.3662,-4.545484 -12.59627,-5.318504 -2.45166,-0.193963 -3.4493,-0.345508 -5.91345,-0.249864 -2.60335,0.10105 -5.17067,0.608676 -7.73016,1.05142 z" />
    <path
       style="fill:#000000;fill-opacity:1;stroke-width:0.264583"
       id="path11"
       d="M 93.913123,56.818908 C 90.281839,56.54173 86.640489,56.37645 82.99869,56.360718 c -2.902735,0.0048 -5.754214,0.472853 -8.491471,1.421897 -3.704336,1.774301 -7.061576,4.181719 -10.421459,6.523905 -1.478924,1.050806 -3.0033,2.101988 -4.130889,3.54915 -0.619885,0.795568 -0.769555,1.159569 -1.240639,2.034699 -1.537763,3.183155 -1.557587,6.837037 -1.665391,10.300285 -0.05202,3.46257 -0.01771,6.925902 0.03243,10.388303 0.114621,2.520307 -0.165298,5.011296 -0.684175,7.472963 -0.753734,2.93147 -1.914167,5.73945 -3.247418,8.44958 -3.063831,5.5788 -4.958731,11.7471 -6.919849,17.77898 -1.575913,5.30386 -2.820574,10.69774 -3.924018,16.11718 -0.42999,2.18773 -0.212514,1.1309 -0.648925,3.1712 0,0 3.362503,1.80021 3.362503,1.80021 v 0 c 0.408318,-2.06169 0.205222,-0.9954 0.606103,-3.19947 0.992664,-5.44472 2.139985,-10.86962 3.71856,-16.17803 1.925748,-6.02916 3.875566,-12.12863 7.085171,-17.62131 1.399799,-2.71127 2.570443,-5.5519 3.345267,-8.508886 0.513832,-2.479799 0.8858,-4.997085 0.749813,-7.537672 -0.103101,-3.478549 -0.2495,-6.957685 -0.177721,-10.438678 0.124528,-3.398843 0.215804,-6.952953 1.716689,-10.075862 0.466328,-0.880745 0.566479,-1.161979 1.19003,-1.959285 1.103664,-1.411208 2.589669,-2.458897 4.008966,-3.521395 3.315189,-2.369764 6.658787,-4.79716 10.435497,-6.383787 2.698615,-0.897678 5.492964,-1.378183 8.345739,-1.37014 3.675247,0.01016 7.367823,0.134221 11.013093,0.62442 z" />
    <path
       style="fill:#000000;fill-opacity:1;stroke-width:0.264583"
       id="path12"
       d="m 94.142766,59.914106 c -5.030457,3.597043 -10.124829,7.169817 -14.29334,11.796977 -3.324373,3.690141 -5.085495,6.565641 -7.865967,10.644267 -3.819829,6.38425 -6.795183,13.263041 -8.668954,20.46769 -0.961906,3.69853 -1.084658,4.97094 -1.70386,8.72512 -0.707015,4.76313 -1.067653,9.56789 -1.731469,14.33628 -0.297489,2.13695 -0.487947,3.20826 -0.832003,5.28109 -1.563482,6.38029 -2.405937,12.90441 -3.175931,19.42047 -0.51511,7.57341 -0.766015,15.18037 -0.302524,22.76195 0.284953,3.1567 0.594697,6.30813 0.732183,9.47539 0.09712,2.46273 0.365484,4.90556 0.682482,7.34738 0.193244,1.6844 0.103971,0.8411 0.267783,2.5299 0,0 3.441123,1.71238 3.441123,1.71238 v 0 c -0.158752,-1.69808 -0.06919,-0.8505 -0.268625,-2.54275 -0.290799,-2.43608 -0.5822,-4.86876 -0.698645,-7.32171 -0.150627,-3.1954 -0.446497,-6.37556 -0.855142,-9.5488 -0.644589,-7.58368 -0.568174,-15.21934 0.07358,-22.80226 0.439802,-3.67028 0.538097,-4.85171 1.143169,-8.48076 0.485567,-2.91229 1.168973,-5.76202 1.785463,-8.64534 0.154801,-0.724 0.295639,-1.45092 0.443459,-2.17638 0.411109,-2.81964 0.842902,-5.63806 1.144285,-8.47228 0.398897,-3.75126 0.677705,-7.51677 1.207679,-11.25412 0.58579,-3.619 0.756227,-5.14018 1.641124,-8.7135 1.783903,-7.203613 4.626213,-14.107479 8.433107,-20.480055 2.973829,-4.383088 4.26213,-6.633575 7.889097,-10.551375 4.240355,-4.580374 9.385612,-8.242598 14.777709,-11.328429 z" />
    <path
       style="fill:#000000;fill-opacity:1;stroke-width:0.264583"
       id="path13"
       d="m 105.70103,63.379936 c 3.12877,1.045168 6.21979,2.270366 9.20227,3.682334 0.37547,0.177749 0.71741,0.41983 1.06411,0.648673 1.26573,0.835475 2.57849,1.608365 3.77231,2.54371 1.1982,0.938776 2.25707,2.042943 3.38561,3.064412 3.15054,3.655094 5.09102,6.955911 6.46356,11.595063 1.27798,4.31955 1.59465,8.779856 1.92576,13.242374 0.47348,8.282278 0.0658,16.574818 -0.68242,24.826128 -0.40934,3.9134 -0.75992,7.83184 -0.97955,11.76063 -0.0662,1.26678 -0.15823,2.61635 0.36489,3.81501 0.35356,0.81012 0.82615,1.42082 1.32363,2.14773 1.81803,2.28744 3.75017,4.48002 5.59204,6.7482 0.76281,0.96579 1.61504,1.861 2.35369,2.84544 0,0 3.61489,1.56662 3.61489,1.56662 v 0 c -0.71549,-1.03859 -1.64422,-1.91164 -2.42468,-2.90086 -1.83991,-2.26971 -3.79391,-4.44334 -5.61623,-6.72752 -0.41488,-0.58763 -0.99694,-1.35252 -1.31615,-2.01672 -0.55864,-1.16237 -0.53839,-2.46579 -0.47777,-3.71889 0.13444,-3.95946 0.43309,-7.90883 0.76607,-11.85618 0.58549,-8.29281 0.98972,-16.63019 0.58203,-24.939635 -0.47324,-5.969047 -0.90957,-12.079716 -3.40304,-17.628655 -1.4535,-3.234611 -2.77048,-4.636389 -4.90303,-7.456594 -1.12175,-1.036714 -2.16986,-2.159285 -3.36526,-3.110142 -1.19168,-0.947904 -2.47855,-1.773915 -3.7763,-2.57047 -2.29849,-1.410819 -4.62061,-2.788512 -7.00565,-4.0475 -1.22055,-0.644287 -2.52456,-1.116513 -3.79568,-1.654178 -3.39937,-1.437878 -2.84888,-1.202936 -5.73755,-2.224624 z" />
    <path
       style="fill:#000000;fill-opacity:1;stroke-width:0.264583"
       id="path14"
       d="m 108.83728,62.536447 c 3.17987,1.210422 2.32818,0.810581 6.27046,2.822517 1.61527,0.824352 3.22605,1.659163 4.80806,2.54566 1.97471,1.106548 5.61665,3.789404 6.8572,4.758608 1.45744,1.138639 2.82383,2.389227 4.23575,3.583842 1.33415,1.539602 2.7715,2.995506 4.00244,4.618807 3.5296,4.654653 6.26655,9.955218 8.47595,15.343105 1.55021,3.780364 2.02509,5.513354 3.23162,9.299374 1.61478,5.83658 2.82132,11.81203 3.42517,17.843 0.29276,2.92394 0.24545,3.71648 0.28228,6.55817 -0.0494,2.32158 -0.25275,4.65228 -0.73796,6.92698 -0.33868,1.58779 -0.89014,3.1273 -1.40289,4.66417 -0.77774,2.62107 -1.06618,5.34391 -1.25763,8.06018 -0.20925,2.62141 0.0275,5.23762 0.38162,7.83429 0.35196,2.43107 0.86949,4.83324 1.22402,7.26398 0.16327,2.12208 1.27735,3.97874 2.24537,5.82275 0.74051,1.52863 1.51044,3.04379 2.33594,4.52827 0,0 3.5402,1.57724 3.5402,1.57724 v 0 c -0.8713,-1.47133 -1.66513,-2.98951 -2.39228,-4.53733 -0.94087,-1.79787 -2.02998,-3.6162 -2.22809,-5.67382 -0.3951,-2.44274 -0.94924,-4.85612 -1.31922,-7.30309 -0.34602,-2.56832 -0.53497,-5.14484 -0.35379,-7.73636 0.13775,-2.6948 0.40007,-5.39713 1.17326,-7.99467 0.49703,-1.56929 1.03358,-3.13439 1.35884,-4.7516 0.46579,-2.31583 0.6718,-4.68243 0.66285,-7.04288 -0.0744,-2.94369 -0.0332,-3.61219 -0.36699,-6.6449 -0.66644,-6.05477 -1.93186,-12.04235 -3.46172,-17.93142 -1.19931,-3.62182 -1.85052,-5.7826 -3.32824,-9.383135 -2.20204,-5.365401 -5.02761,-10.788549 -8.49224,-15.453966 -1.20787,-1.626518 -2.61513,-3.095027 -3.9227,-4.64254 -3.23403,-2.749786 -5.36061,-4.737814 -8.95965,-7.055345 -3.96741,-2.554742 -8.45061,-5.033663 -12.69655,-7.217587 -1.42113,-0.730964 -2.84453,-1.459746 -4.29698,-2.126297 -0.78127,-0.358537 -1.59924,-0.631011 -2.39886,-0.946518 z" />
    <path
       style="fill:#000000;fill-opacity:1;stroke-width:0.264583"
       id="path15"
       d="m 102.08403,59.436123 c 1.94946,-3.259566 4.7007,-5.963237 7.75621,-8.192687 0.73392,-0.535504 1.5134,-1.005605 2.2701,-1.508406 0.72604,-0.392385 1.41465,-0.863788 2.17813,-1.177155 2.00754,-0.823986 4.28624,-0.997336 6.10208,0.417378 0.29971,0.233502 -1.28025,-0.582584 -1.11405,-0.240933 0.38138,0.783974 1.25395,1.211557 1.88093,1.817336 2.65499,2.755448 3.60856,5.177168 4.81705,8.83458 0.58737,1.777638 1.10457,3.57832 1.6012,5.383411 1.32077,4.80059 2.08269,8.324641 3.21631,13.212805 2.6367,11.416337 4.47667,22.991378 6.07825,34.591358 0.93744,7.15647 1.46925,14.35834 1.68258,21.57081 0.008,3.68829 -0.14177,7.3755 -0.24536,11.06213 -0.0678,2.36833 -0.1235,4.73653 -0.13427,7.10582 0.34263,2.71471 1.43507,5.23171 2.64182,7.65855 0.65898,1.29499 1.4853,2.48696 2.53739,3.48922 1.56251,1.20531 3.25665,2.3662 5.20782,2.7194 0,0 -3.13446,-2.38561 -3.13446,-2.38561 v 0 c -0.15731,-0.0431 -0.3174,-0.0771 -0.47192,-0.12927 -0.14765,-0.0499 -0.56526,-0.25882 -0.43294,-0.17649 0.0864,0.0538 4.35341,2.56929 2.47304,1.4607 -1.09617,-0.95611 -1.97104,-2.10144 -2.65908,-3.38677 -1.21172,-2.37364 -2.37955,-4.80729 -2.70668,-7.48753 0.009,-2.37963 0.009,-4.75946 0.0531,-7.13877 0.0739,-3.70509 0.25859,-7.40919 0.19487,-11.11571 -0.39778,-7.27457 -1.01549,-14.53801 -1.98775,-21.76014 -1.58875,-11.65845 -3.65601,-23.243914 -6.27368,-34.718034 -1.02684,-4.611168 -1.87147,-8.592457 -3.04317,-13.14991 -0.46022,-1.790097 -0.94597,-3.574161 -1.47482,-5.345197 -1.14795,-3.844319 -1.8095,-5.984407 -4.53921,-8.890767 -2.87789,-2.867308 -2.22329,-2.463263 -7.08324,-5.287992 -0.67339,-0.391393 -1.40574,-0.719145 -2.17104,-0.863941 -2.225,-0.420981 -4.48219,0.88302 -6.28032,1.955779 -0.75568,0.515019 -1.53199,1.001006 -2.26704,1.545058 -3.10005,2.294509 -5.88211,4.994039 -8.089248,8.165457 z" />
    <path
       style="fill:#000000;fill-opacity:1;stroke-width:0.264583"
       id="path16"
       d="M 97.98278,59.59535 C 94.844173,57.5253 91.599956,55.597329 88.190569,54.005675 87.540628,53.702253 86.895415,53.3856 86.226813,53.125869 c -0.687932,-0.267242 -1.400511,-0.46609 -2.100768,-0.699135 -1.748448,-0.536175 -3.529771,-0.955606 -5.346787,-1.172958 -0.894892,-0.107048 -1.701779,-0.183449 -2.599423,-0.05907 -0.409225,0.0567 -0.804502,0.188394 -1.206756,0.282593 -2.365896,0.782098 -4.535395,2.064383 -6.540656,3.525851 -2.21315,2.321124 -3.590436,5.208519 -4.900605,8.095216 -0.398859,0.878805 -0.826318,1.746847 -1.16458,2.650709 -0.382293,1.021519 -0.662735,2.078313 -0.994102,3.117469 -1.958204,7.352284 -2.885318,14.927493 -3.596021,22.486577 -0.566936,8.024837 -1.047402,16.055599 -1.573213,24.083279 -0.385911,6.61256 -0.728609,13.22851 -1.23272,19.8334 -0.412552,6.75884 -0.681427,13.52567 -0.995619,20.2896 -0.25681,4.02474 -0.246345,8.07057 -0.701153,12.08182 -0.195325,1.72271 -0.315257,2.23224 -0.616703,3.882 -0.429467,1.98706 -0.953536,4.07011 -2.323507,5.6344 -0.717426,0.65533 -1.66688,0.61388 -2.579899,0.62623 -1.302826,0.0857 -2.372567,-0.0676 -3.568193,-0.59406 -1.224343,-0.67879 -3.682681,-2.07833 1.864525,1.06686 0,0 -3.665697,-1.43432 -3.665697,-1.43432 v 0 c 1.609272,0.94904 3.186491,1.99026 4.882128,2.7911 1.197904,0.43776 2.407553,0.55556 3.680089,0.47664 1.021533,-0.0427 2.01424,-0.11361 2.753838,-0.91061 1.343058,-1.68127 1.891784,-3.80587 2.289598,-5.88465 0.292989,-1.74935 0.381603,-2.11305 0.56526,-3.94575 0.406106,-4.05249 0.310582,-8.13076 0.516306,-12.19429 0.293263,-6.73464 0.782928,-13.45458 1.18678,-20.18273 0.358855,-6.62656 0.616878,-13.25953 1.157531,-19.875 0.416228,-8.0492 0.760014,-16.10591 1.434932,-24.138419 0.807095,-7.508584 1.667575,-15.056974 3.678042,-22.356839 0.338491,-1.021678 0.633823,-2.058683 1.015473,-3.065039 0.340953,-0.899049 0.748661,-1.771677 1.150142,-2.645376 1.297847,-2.824347 2.733969,-5.632846 4.989788,-7.823893 1.974119,-1.426046 4.107381,-2.684169 6.451462,-3.39304 0.388175,-0.07622 0.771191,-0.186508 1.164526,-0.228648 2.534227,-0.27151 5.360832,0.62642 7.768238,1.270963 2.253049,0.790604 1.901304,0.598752 4.030139,1.612405 0.68444,0.325901 1.300141,0.829914 2.0354,1.014487 0.540094,0.13558 -1.855438,-1.222632 -1.430584,-0.862658 0.794324,0.673023 1.859894,0.970502 2.628985,1.686311 z" />
    <path
       style="fill:#000000;fill-opacity:1;stroke-width:0.264583"
       id="path17"
       d="m 90.889594,58.170994 c -2.711095,-1.246407 -5.523761,-2.255871 -8.352573,-3.198854 -2.745507,-1.001337 -5.628637,-1.136126 -8.515236,-1.034958 -0.421796,0.09129 -0.856173,0.136782 -1.265388,0.27386 -1.799749,0.602874 -4.351528,2.420712 -5.657286,3.772135 -0.596009,0.616855 -1.112216,1.306105 -1.668325,1.959155 -3.195496,4.328943 -6.075884,8.892403 -8.718146,13.577866 -2.221481,5.561008 -3.68222,11.418946 -4.591434,17.334355 -0.223881,1.456578 -0.367108,2.924418 -0.550662,4.386627 -1.023368,8.36217 -1.038197,16.79028 -1.321787,25.19605 -0.172549,7.54067 -0.986776,15.03889 -2.074276,22.49584 -0.984483,6.93387 -2.224681,13.83465 -3.554304,20.71073 -0.333122,1.7721 -0.664876,3.54727 -1.336418,5.22587 0,0 3.416291,1.8953 3.416291,1.8953 v 0 c 0.591797,-1.74953 0.899424,-3.56649 1.172689,-5.39044 1.147668,-6.91522 2.293722,-13.82965 3.565786,-20.72361 0.905777,-7.52475 1.65861,-15.07167 1.840713,-22.65431 0.387273,-8.38434 0.429226,-16.79403 1.354126,-25.144758 0.194072,-1.449673 0.35476,-2.904209 0.582214,-4.349022 0.922259,-5.858298 2.367956,-11.671617 4.735988,-17.12056 2.551917,-4.705297 5.361597,-9.290923 8.634696,-13.532924 0.572032,-0.623578 1.113409,-1.276731 1.716098,-1.870729 1.416857,-1.396423 3.675949,-3.003769 5.607513,-3.569374 0.400585,-0.117301 0.821698,-0.147381 1.232546,-0.221073 2.85452,-0.09546 5.688377,0.121071 8.394898,1.116063 2.86058,0.969039 5.715942,1.984814 8.426979,3.326233 z" />
    <rect
       style="fill:#cba425;fill-opacity:1;stroke-width:0.274325"
       id="rect17"
       width="12.613899"
       height="16.436295"
       x="90.590736"
       y="126.90348" />
    <path
       id="path18"
       style="fill:url(#pattern22);fill-opacity:1;stroke-width:0.264583"
       d="m 95.941947,140.66377 v 5.1e-4 a 17.96525,33.063705 0 0 0 -17.965311,33.06362 17.96525,33.063705 0 0 0 1.648995,13.65859 c 2.386484,0.23151 4.743639,0.68633 7.07502,1.24282 0.941138,0.2352 1.875889,0.49269 2.810164,0.75241 0.09861,0.0148 0.197513,0.0275 0.296106,0.0424 -0.01383,-0.2098 -0.02446,-0.40496 -0.04806,-0.65991 -0.0017,-0.0181 0.0069,-0.0256 0.02119,-0.0269 0.04298,-0.004 0.141441,0.05 0.195853,0.0537 0.04787,0.004 0.168918,0.009 0.243396,0.0134 0.27268,-0.085 0.724687,0.006 1.571481,0.047 3.27858,0.16926 6.551525,0.42432 9.81542,0.76998 0.005,5.1e-4 0.01,0.001 0.015,0.002 0.0355,0.004 0.0709,0.008 0.10645,0.0119 0.72688,0.0775 1.45381,0.15413 2.17971,0.24133 0.14435,0.0182 0.2887,0.0366 0.43305,0.0548 0.0348,0.004 0.0696,0.008 0.10439,0.0119 0.0586,0.008 0.11752,0.0157 0.17621,0.0238 0.25047,0.0316 0.50095,0.0632 0.75138,0.0951 0.2916,0.0371 0.58303,0.0762 0.87436,0.11524 0.99367,-0.04 1.9873,-0.0809 2.9807,-0.11989 0.56003,-0.0219 1.1205,-0.0433 1.68052,-0.0656 0.20476,-0.008 0.40958,-0.0236 0.61443,-0.0377 a 17.96525,33.063705 0 0 0 2.38487,-16.2264 17.96525,33.063705 0 0 0 -17.965313,-33.06361 z m -7.270357,55.55991 c -0.01177,0.003 -0.02384,0.006 -0.03566,0.009 0.0095,0.004 0.0189,0.008 0.02842,0.0114 0.0028,-0.007 0.0045,-0.014 0.0072,-0.0207 z m 14.55518,1.19424 c 0.25292,0.052 0.50537,0.10512 0.75913,0.15245 0.0207,-0.0218 0.0385,-0.0461 0.0594,-0.0677 -0.27297,-0.027 -0.54564,-0.0572 -0.81856,-0.0847 z m 4.68602,0.56173 c -0.005,0.007 -0.0112,0.0142 -0.0165,0.0217 0.004,-6e-5 0.007,7e-5 0.0109,0 0.002,-0.007 0.004,-0.0145 0.006,-0.0217 z m -23.812497,0.49196 a 17.96525,33.063705 0 0 0 0.675411,1.11259 c 0.07282,-0.11262 0.148264,-0.22445 0.221692,-0.33693 -0.307053,-0.25106 -0.606339,-0.51054 -0.897103,-0.77566 z m 16.018147,6.52311 c -0.0327,0.008 -0.0657,0.0164 -0.0982,0.0238 0.0872,0.0497 0.16753,0.10423 0.2403,0.16485 0.009,-0.0364 0.0166,-0.073 0.0248,-0.10955 -0.0562,-0.026 -0.11224,-0.0518 -0.16691,-0.0791 z m -0.93483,0.52142 c -0.08295,-0.005 -0.189309,0.0543 -0.276986,0.062 -0.0052,0.0131 -0.0089,0.0271 -0.01395,0.0403 0.02096,0.002 0.04153,0.007 0.06253,0.008 0.103831,0.006 0.375639,-0.006 0.301791,-0.0796 -0.02083,-0.0207 -0.04573,-0.0292 -0.07338,-0.031 z" />
    <path
       style="fill:url(#pattern24);fill-opacity:1;stroke-width:0.264583"
       d="m 111.61389,171.24324 c 0,0 9.55599,23.69884 34.40156,4.96911 24.84556,-18.72973 -11.84943,4.58688 -32.49036,-13.37837 -20.640926,-17.96525 -1.9112,8.40926 -1.9112,8.40926 z"
       id="path24" />
    <path
       style="fill:url(#pattern24-0);fill-opacity:1;stroke-width:0.264583"
       d="m 83.519791,167.97441 c 0,0 -9.55599,23.69884 -34.40156,4.96911 -24.84556,-18.72973 11.84943,4.58688 32.49036,-13.37837 20.640929,-17.96525 1.9112,8.40926 1.9112,8.40926 z"
       id="path24-2" />
    <ellipse
       style="fill:#cba425;fill-opacity:1;stroke-width:0.264583"
       id="path25"
       cx="39.752895"
       cy="163.59846"
       rx="7.262548"
       ry="5.7335906" />
    <ellipse
       style="fill:#cba425;fill-opacity:1;stroke-width:0.264583"
       id="path26"
       cx="155.38031"
       cy="167.80309"
       rx="5.1602321"
       ry="5.7335906" />
    <path
       style="fill:#cba425;fill-opacity:1;stroke-width:0.264583"
       d="m 154.71139,163.0251 c 0,0 -0.63154,-5.73142 0.38224,-8.31371 0.19823,-0.50493 0.51003,-1.27993 1.05116,-1.24228 0.71409,0.0497 0.97299,1.12123 1.14671,1.81564 0.63559,2.54066 -0.57336,7.83591 -0.57336,7.83591"
       id="path27"
       sodipodi:nodetypes="caaac" />
    <path
       style="fill:#cba425;fill-opacity:1;stroke-width:0.264583"
       d="m 79.888029,186.72394 c 0,0 -0.382239,4.39575 1.911199,11.08494 2.293435,6.68919 29.814672,2.10231 29.814672,2.10231 0,0 -3.82239,10.12935 0,0 3.82239,-10.12934 -0.19112,-10.51158 -0.19112,-10.51158 z"
       id="path31" />
    <circle
       id="path32"
       style="fill:#302709;stroke:#000000;stroke-width:0.264583;fill-opacity:1"
       cx="96.324318"
       cy="194.94209"
       r="0.025456958" />
    <path
       style="fill:#302709;fill-opacity:1;stroke-width:0.113643"
       d="m 95.359043,195.4075 c -0.09706,0 -0.195997,-0.0242 -0.291167,0 -0.10498,0.0267 -0.453788,0.5062 -0.509543,0.64801 -0.01085,0.0276 0.01716,0.0708 0,0.0926 -0.01716,0.0218 -0.05563,-0.0218 -0.07279,0 -0.09378,0.11926 -0.100888,0.51971 0,0.64802 0.06249,0.0795 0.280039,0.0659 0.363958,0.0926 0.351507,0.11176 -0.0036,0.044 0.218376,0.18515 0.04866,0.031 0.549035,0.0423 0.582333,0 0.01716,-0.0219 -0.01716,-0.0707 0,-0.0926 0.04165,-0.053 0.183962,-0.0539 0.218375,-0.18515 0.0448,-0.17093 0.153411,-1.18356 0.07279,-1.38861 -0.01085,-0.0276 -0.05109,0.0138 -0.07279,0 -0.239752,-0.15246 -0.05038,-0.1168 -0.509541,0 z"
       id="path33" />
    <path
       style="fill:#cba425;fill-opacity:1;stroke:none;stroke-width:0.264999;stroke-dasharray:none;stroke-opacity:1;paint-order:normal"
       d="m 116.47249,242.51141 v 3.37855 c 0,0 8.06762,-1.26101 8.10852,1.48657 0.01,0.64491 -1.89199,0.40542 -1.89199,0.40542 0,0 1.68032,0.39805 1.14871,1.35142 -0.53161,0.95337 -2.50013,-0.54057 -2.50013,-0.54057 0,0 0.83751,0.92687 0.54057,1.28386 -0.47181,0.56723 -2.16227,-0.473 -2.16227,-0.473 0,0 0.97956,1.15207 0.54057,1.21628 -2.00419,0.29314 -5.40569,-0.946 -5.40569,-0.946 l -2.29741,-0.94599 -0.81085,-5.94625 z"
       id="path37-3"
       sodipodi:nodetypes="ccaczcacscccc" />
    <path
       style="fill:#171675;fill-opacity:1;stroke-width:0.264583"
       d="m 81.625786,199.46963 c 0,0 12.433067,3.51369 30.271814,0.54057 5.67597,17.56847 8.64909,42.97517 8.64909,42.97517 l -11.8925,-0.27029 c 0,0 -2.97312,-22.70386 -8.64909,-27.56897 -5.675965,-4.86511 -10.270793,27.0284 -10.270793,27.0284 l -12.162782,-0.81085 c 0,0 4.865114,-31.35295 4.054261,-41.89403 z"
       id="path34"
       sodipodi:nodetypes="ccccsccc" />
    <path
       style="fill:#ffffff;fill-opacity:1;stroke-width:0.264583"
       d="m 83.710424,201.05791 c 0,0 0.382238,14.5251 -4.204634,38.7973"
       id="path35"
       sodipodi:nodetypes="cc" />
    <path
       style="fill:#ffffff;fill-opacity:1;stroke-width:0.265;stroke-dasharray:none;paint-order:normal;stroke:#000000;stroke-opacity:1"
       d="m 110.46718,203.16023 c 0,0 7.83591,22.361 8.60039,38.22394"
       id="path36" />
    <path
       style="fill:#cba425;fill-opacity:1;stroke:none;stroke-width:0.264999;stroke-dasharray:none;stroke-opacity:1;paint-order:normal"
       d="m 80.274364,241.4988 v 3.37855 c 0,0 -8.067622,-1.26101 -8.108522,1.48657 -0.0096,0.64491 1.891988,0.40542 1.891988,0.40542 0,0 -1.680315,0.39805 -1.148708,1.35142 0.531608,0.95337 2.500128,-0.54057 2.500128,-0.54057 0,0 -0.837503,0.92687 -0.540568,1.28386 0.471807,0.56723 2.162274,-0.473 2.162274,-0.473 0,0 -0.979561,1.15207 -0.540568,1.21628 2.004182,0.29314 5.405681,-0.946 5.405681,-0.946 l 2.297414,-0.94599 0.810853,-5.94625 z"
       id="path37"
       sodipodi:nodetypes="ccaczcacscccc" />
  </g>
</svg>
